{
	"patcher" : 	{
		"fileversion" : 1,
		"appversion" : 		{
			"major" : 5,
			"minor" : 1,
			"revision" : 9
		}
,
		"rect" : [ -3.0, 45.0, 760.0, 636.0 ],
		"bglocked" : 0,
		"defrect" : [ -3.0, 45.0, 760.0, 636.0 ],
		"openrect" : [ 0.0, 0.0, 0.0, 0.0 ],
		"openinpresentation" : 0,
		"default_fontsize" : 12.0,
		"default_fontface" : 0,
		"default_fontname" : "Arial",
		"gridonopen" : 1,
		"gridsize" : [ 15.0, 15.0 ],
		"gridsnaponopen" : 1,
		"toolbarvisible" : 1,
		"boxanimatetime" : 200,
		"imprint" : 0,
		"enablehscroll" : 1,
		"enablevscroll" : 1,
		"devicewidth" : 0.0,
		"boxes" : [ 			{
				"box" : 				{
					"maxclass" : "comment",
					"text" : "force reset",
					"fontsize" : 12.0,
					"patching_rect" : [ 357.0, 141.0, 68.0, 20.0 ],
					"numinlets" : 1,
					"id" : "obj-6",
					"fontname" : "Arial",
					"numoutlets" : 0
				}

			}
, 			{
				"box" : 				{
					"maxclass" : "button",
					"outlettype" : [ "bang" ],
					"patching_rect" : [ 333.0, 109.0, 20.0, 20.0 ],
					"numinlets" : 1,
					"id" : "obj-3",
					"numoutlets" : 1
				}

			}
, 			{
				"box" : 				{
					"maxclass" : "newobj",
					"text" : "print",
					"fontsize" : 12.0,
					"patching_rect" : [ 541.0, 317.0, 34.0, 20.0 ],
					"numinlets" : 1,
					"id" : "obj-59",
					"fontname" : "Arial",
					"numoutlets" : 0
				}

			}
, 			{
				"box" : 				{
					"maxclass" : "comment",
					"text" : "iterate through the notes 1 by 1",
					"linecount" : 2,
					"fontsize" : 12.0,
					"patching_rect" : [ 541.0, 222.0, 99.0, 34.0 ],
					"numinlets" : 1,
					"id" : "obj-58",
					"fontname" : "Arial",
					"numoutlets" : 0
				}

			}
, 			{
				"box" : 				{
					"maxclass" : "newobj",
					"text" : "zl iter 1",
					"outlettype" : [ "", "" ],
					"fontsize" : 12.0,
					"patching_rect" : [ 541.0, 269.0, 49.0, 20.0 ],
					"numinlets" : 2,
					"id" : "obj-56",
					"fontname" : "Arial",
					"numoutlets" : 2
				}

			}
, 			{
				"box" : 				{
					"maxclass" : "comment",
					"text" : "second outlet outputs only when you lift your hand off the MIDI keys",
					"linecount" : 3,
					"fontsize" : 12.0,
					"patching_rect" : [ 327.0, 298.0, 156.0, 48.0 ],
					"numinlets" : 1,
					"id" : "obj-55",
					"fontname" : "Arial",
					"numoutlets" : 0
				}

			}
, 			{
				"box" : 				{
					"maxclass" : "comment",
					"text" : "first outlet keeps a running list of the notes",
					"linecount" : 2,
					"fontsize" : 12.0,
					"patching_rect" : [ 134.0, 298.0, 156.0, 34.0 ],
					"numinlets" : 1,
					"id" : "obj-54",
					"fontname" : "Arial",
					"numoutlets" : 0
				}

			}
, 			{
				"box" : 				{
					"maxclass" : "message",
					"text" : "53",
					"outlettype" : [ "" ],
					"fontsize" : 12.0,
					"patching_rect" : [ 332.0, 269.0, 138.0, 18.0 ],
					"numinlets" : 2,
					"id" : "obj-53",
					"fontname" : "Arial",
					"numoutlets" : 1
				}

			}
, 			{
				"box" : 				{
					"maxclass" : "comment",
					"text" : "rememberChord will keep track of the last group of notes selected from a MIDI device",
					"linecount" : 4,
					"fontsize" : 12.0,
					"patching_rect" : [ 196.0, 33.0, 150.0, 62.0 ],
					"numinlets" : 1,
					"id" : "obj-51",
					"fontname" : "Arial",
					"numoutlets" : 0
				}

			}
, 			{
				"box" : 				{
					"maxclass" : "newobj",
					"text" : "p rememberChord",
					"outlettype" : [ "", "" ],
					"fontsize" : 12.0,
					"patching_rect" : [ 245.0, 141.0, 108.0, 20.0 ],
					"numinlets" : 3,
					"id" : "obj-49",
					"fontname" : "Arial",
					"numoutlets" : 2,
					"patcher" : 					{
						"fileversion" : 1,
						"appversion" : 						{
							"major" : 5,
							"minor" : 1,
							"revision" : 9
						}
,
						"rect" : [ 674.0, 155.0, 764.0, 609.0 ],
						"bglocked" : 0,
						"defrect" : [ 674.0, 155.0, 764.0, 609.0 ],
						"openrect" : [ 0.0, 0.0, 0.0, 0.0 ],
						"openinpresentation" : 0,
						"default_fontsize" : 12.0,
						"default_fontface" : 0,
						"default_fontname" : "Arial",
						"gridonopen" : 1,
						"gridsize" : [ 15.0, 15.0 ],
						"gridsnaponopen" : 1,
						"toolbarvisible" : 1,
						"boxanimatetime" : 200,
						"imprint" : 0,
						"enablehscroll" : 1,
						"enablevscroll" : 1,
						"devicewidth" : 0.0,
						"boxes" : [ 							{
								"box" : 								{
									"maxclass" : "comment",
									"text" : "force reset",
									"fontsize" : 12.0,
									"patching_rect" : [ 450.0, 49.0, 150.0, 20.0 ],
									"numinlets" : 1,
									"id" : "obj-7",
									"fontname" : "Arial",
									"numoutlets" : 0
								}

							}
, 							{
								"box" : 								{
									"maxclass" : "inlet",
									"outlettype" : [ "bang" ],
									"patching_rect" : [ 407.0, 40.0, 25.0, 25.0 ],
									"numinlets" : 0,
									"id" : "obj-5",
									"numoutlets" : 1,
									"comment" : ""
								}

							}
, 							{
								"box" : 								{
									"maxclass" : "outlet",
									"patching_rect" : [ 313.0, 541.0, 30.0, 30.0 ],
									"numinlets" : 1,
									"id" : "obj-1",
									"numoutlets" : 0,
									"comment" : ""
								}

							}
, 							{
								"box" : 								{
									"maxclass" : "newobj",
									"text" : "t b b",
									"outlettype" : [ "bang", "bang" ],
									"fontsize" : 12.0,
									"patching_rect" : [ 355.0, 459.0, 34.0, 20.0 ],
									"numinlets" : 1,
									"id" : "obj-37",
									"fontname" : "Arial",
									"numoutlets" : 2
								}

							}
, 							{
								"box" : 								{
									"maxclass" : "message",
									"text" : "53",
									"outlettype" : [ "" ],
									"fontsize" : 12.0,
									"patching_rect" : [ 313.0, 502.0, 172.0, 18.0 ],
									"numinlets" : 2,
									"id" : "obj-36",
									"fontname" : "Arial",
									"numoutlets" : 1
								}

							}
, 							{
								"box" : 								{
									"maxclass" : "newobj",
									"text" : "sel 1",
									"outlettype" : [ "bang", "" ],
									"fontsize" : 12.0,
									"patching_rect" : [ 355.0, 421.0, 36.0, 20.0 ],
									"numinlets" : 2,
									"id" : "obj-32",
									"fontname" : "Arial",
									"numoutlets" : 2
								}

							}
, 							{
								"box" : 								{
									"maxclass" : "newobj",
									"text" : "zl sort",
									"outlettype" : [ "", "" ],
									"fontsize" : 12.0,
									"patching_rect" : [ 355.0, 337.0, 43.0, 20.0 ],
									"numinlets" : 2,
									"id" : "obj-30",
									"fontname" : "Arial",
									"numoutlets" : 2
								}

							}
, 							{
								"box" : 								{
									"maxclass" : "newobj",
									"text" : "zl thin",
									"outlettype" : [ "", "" ],
									"fontsize" : 12.0,
									"patching_rect" : [ 355.0, 304.0, 42.0, 20.0 ],
									"numinlets" : 2,
									"id" : "obj-31",
									"fontname" : "Arial",
									"numoutlets" : 2
								}

							}
, 							{
								"box" : 								{
									"maxclass" : "newobj",
									"text" : "zl compare",
									"outlettype" : [ "", "" ],
									"fontsize" : 12.0,
									"patching_rect" : [ 355.0, 386.0, 69.0, 20.0 ],
									"numinlets" : 2,
									"id" : "obj-29",
									"fontname" : "Arial",
									"numoutlets" : 2
								}

							}
, 							{
								"box" : 								{
									"maxclass" : "newobj",
									"text" : "zl sort",
									"outlettype" : [ "", "" ],
									"fontsize" : 12.0,
									"patching_rect" : [ 192.0, 337.0, 43.0, 20.0 ],
									"numinlets" : 2,
									"id" : "obj-28",
									"fontname" : "Arial",
									"numoutlets" : 2
								}

							}
, 							{
								"box" : 								{
									"maxclass" : "newobj",
									"text" : "zl thin",
									"outlettype" : [ "", "" ],
									"fontsize" : 12.0,
									"patching_rect" : [ 192.0, 304.0, 42.0, 20.0 ],
									"numinlets" : 2,
									"id" : "obj-27",
									"fontname" : "Arial",
									"numoutlets" : 2
								}

							}
, 							{
								"box" : 								{
									"maxclass" : "message",
									"text" : "set",
									"outlettype" : [ "" ],
									"fontsize" : 12.0,
									"patching_rect" : [ 404.0, 198.0, 29.5, 18.0 ],
									"numinlets" : 2,
									"id" : "obj-22",
									"fontname" : "Arial",
									"numoutlets" : 1
								}

							}
, 							{
								"box" : 								{
									"maxclass" : "newobj",
									"text" : "prepend set",
									"outlettype" : [ "" ],
									"fontsize" : 12.0,
									"patching_rect" : [ 415.0, 261.0, 74.0, 20.0 ],
									"numinlets" : 1,
									"id" : "obj-19",
									"fontname" : "Arial",
									"numoutlets" : 1
								}

							}
, 							{
								"box" : 								{
									"maxclass" : "newobj",
									"text" : "append",
									"outlettype" : [ "" ],
									"fontsize" : 12.0,
									"patching_rect" : [ 355.0, 261.0, 51.0, 20.0 ],
									"numinlets" : 1,
									"id" : "obj-20",
									"fontname" : "Arial",
									"numoutlets" : 1
								}

							}
, 							{
								"box" : 								{
									"maxclass" : "newobj",
									"text" : "prepend set",
									"outlettype" : [ "" ],
									"fontsize" : 12.0,
									"patching_rect" : [ 256.0, 261.0, 74.0, 20.0 ],
									"numinlets" : 1,
									"id" : "obj-17",
									"fontname" : "Arial",
									"numoutlets" : 1
								}

							}
, 							{
								"box" : 								{
									"maxclass" : "newobj",
									"text" : "append",
									"outlettype" : [ "" ],
									"fontsize" : 12.0,
									"patching_rect" : [ 192.0, 261.0, 51.0, 20.0 ],
									"numinlets" : 1,
									"id" : "obj-18",
									"fontname" : "Arial",
									"numoutlets" : 1
								}

							}
, 							{
								"box" : 								{
									"maxclass" : "newobj",
									"text" : "gate",
									"outlettype" : [ "" ],
									"fontsize" : 12.0,
									"patching_rect" : [ 256.0, 206.0, 34.0, 20.0 ],
									"numinlets" : 2,
									"id" : "obj-16",
									"fontname" : "Arial",
									"numoutlets" : 1
								}

							}
, 							{
								"box" : 								{
									"maxclass" : "newobj",
									"text" : "gate",
									"outlettype" : [ "" ],
									"fontsize" : 12.0,
									"patching_rect" : [ 189.0, 206.0, 34.0, 20.0 ],
									"numinlets" : 2,
									"id" : "obj-14",
									"fontname" : "Arial",
									"numoutlets" : 1
								}

							}
, 							{
								"box" : 								{
									"maxclass" : "newobj",
									"text" : "t 0",
									"outlettype" : [ "int" ],
									"fontsize" : 12.0,
									"patching_rect" : [ 379.0, 143.0, 24.0, 20.0 ],
									"numinlets" : 1,
									"id" : "obj-11",
									"fontname" : "Arial",
									"numoutlets" : 1
								}

							}
, 							{
								"box" : 								{
									"maxclass" : "newobj",
									"text" : "t 1",
									"outlettype" : [ "int" ],
									"fontsize" : 12.0,
									"patching_rect" : [ 349.0, 143.0, 24.0, 20.0 ],
									"numinlets" : 1,
									"id" : "obj-12",
									"fontname" : "Arial",
									"numoutlets" : 1
								}

							}
, 							{
								"box" : 								{
									"maxclass" : "newobj",
									"text" : "sel 0",
									"outlettype" : [ "bang", "" ],
									"fontsize" : 12.0,
									"patching_rect" : [ 355.0, 98.0, 36.0, 20.0 ],
									"numinlets" : 2,
									"id" : "obj-13",
									"fontname" : "Arial",
									"numoutlets" : 2
								}

							}
, 							{
								"box" : 								{
									"maxclass" : "newobj",
									"text" : "t 0",
									"outlettype" : [ "int" ],
									"fontsize" : 12.0,
									"patching_rect" : [ 277.0, 143.0, 24.0, 20.0 ],
									"numinlets" : 1,
									"id" : "obj-4",
									"fontname" : "Arial",
									"numoutlets" : 1
								}

							}
, 							{
								"box" : 								{
									"maxclass" : "newobj",
									"text" : "t 1",
									"outlettype" : [ "int" ],
									"fontsize" : 12.0,
									"patching_rect" : [ 307.0, 143.0, 24.0, 20.0 ],
									"numinlets" : 1,
									"id" : "obj-3",
									"fontname" : "Arial",
									"numoutlets" : 1
								}

							}
, 							{
								"box" : 								{
									"maxclass" : "newobj",
									"text" : "sel 0",
									"outlettype" : [ "bang", "" ],
									"fontsize" : 12.0,
									"patching_rect" : [ 283.0, 98.0, 36.0, 20.0 ],
									"numinlets" : 2,
									"id" : "obj-2",
									"fontname" : "Arial",
									"numoutlets" : 2
								}

							}
, 							{
								"box" : 								{
									"maxclass" : "inlet",
									"outlettype" : [ "int" ],
									"patching_rect" : [ 219.5, 38.0, 30.0, 30.0 ],
									"numinlets" : 0,
									"id" : "obj-46",
									"numoutlets" : 1,
									"comment" : ""
								}

							}
, 							{
								"box" : 								{
									"maxclass" : "inlet",
									"outlettype" : [ "int" ],
									"patching_rect" : [ 313.0, 38.0, 30.0, 30.0 ],
									"numinlets" : 0,
									"id" : "obj-47",
									"numoutlets" : 1,
									"comment" : ""
								}

							}
, 							{
								"box" : 								{
									"maxclass" : "outlet",
									"patching_rect" : [ 192.0, 541.0, 30.0, 30.0 ],
									"numinlets" : 1,
									"id" : "obj-48",
									"numoutlets" : 0,
									"comment" : ""
								}

							}
 ],
						"lines" : [ 							{
								"patchline" : 								{
									"source" : [ "obj-5", 0 ],
									"destination" : [ "obj-22", 0 ],
									"hidden" : 0,
									"midpoints" : [  ]
								}

							}
, 							{
								"patchline" : 								{
									"source" : [ "obj-47", 0 ],
									"destination" : [ "obj-2", 0 ],
									"hidden" : 0,
									"midpoints" : [  ]
								}

							}
, 							{
								"patchline" : 								{
									"source" : [ "obj-47", 0 ],
									"destination" : [ "obj-13", 0 ],
									"hidden" : 0,
									"midpoints" : [  ]
								}

							}
, 							{
								"patchline" : 								{
									"source" : [ "obj-46", 0 ],
									"destination" : [ "obj-16", 1 ],
									"hidden" : 0,
									"midpoints" : [  ]
								}

							}
, 							{
								"patchline" : 								{
									"source" : [ "obj-46", 0 ],
									"destination" : [ "obj-14", 1 ],
									"hidden" : 0,
									"midpoints" : [  ]
								}

							}
, 							{
								"patchline" : 								{
									"source" : [ "obj-4", 0 ],
									"destination" : [ "obj-14", 0 ],
									"hidden" : 0,
									"midpoints" : [  ]
								}

							}
, 							{
								"patchline" : 								{
									"source" : [ "obj-37", 1 ],
									"destination" : [ "obj-36", 0 ],
									"hidden" : 0,
									"midpoints" : [  ]
								}

							}
, 							{
								"patchline" : 								{
									"source" : [ "obj-37", 0 ],
									"destination" : [ "obj-22", 0 ],
									"hidden" : 0,
									"midpoints" : [ 364.5, 495.0, 499.0, 495.0, 499.0, 187.0, 413.5, 187.0 ]
								}

							}
, 							{
								"patchline" : 								{
									"source" : [ "obj-36", 0 ],
									"destination" : [ "obj-1", 0 ],
									"hidden" : 0,
									"midpoints" : [  ]
								}

							}
, 							{
								"patchline" : 								{
									"source" : [ "obj-32", 0 ],
									"destination" : [ "obj-37", 0 ],
									"hidden" : 0,
									"midpoints" : [  ]
								}

							}
, 							{
								"patchline" : 								{
									"source" : [ "obj-31", 0 ],
									"destination" : [ "obj-30", 0 ],
									"hidden" : 0,
									"midpoints" : [  ]
								}

							}
, 							{
								"patchline" : 								{
									"source" : [ "obj-30", 0 ],
									"destination" : [ "obj-29", 0 ],
									"hidden" : 0,
									"midpoints" : [  ]
								}

							}
, 							{
								"patchline" : 								{
									"source" : [ "obj-3", 0 ],
									"destination" : [ "obj-14", 0 ],
									"hidden" : 0,
									"midpoints" : [  ]
								}

							}
, 							{
								"patchline" : 								{
									"source" : [ "obj-29", 0 ],
									"destination" : [ "obj-32", 0 ],
									"hidden" : 0,
									"midpoints" : [  ]
								}

							}
, 							{
								"patchline" : 								{
									"source" : [ "obj-28", 0 ],
									"destination" : [ "obj-48", 0 ],
									"hidden" : 0,
									"midpoints" : [  ]
								}

							}
, 							{
								"patchline" : 								{
									"source" : [ "obj-28", 0 ],
									"destination" : [ "obj-36", 1 ],
									"hidden" : 0,
									"midpoints" : [  ]
								}

							}
, 							{
								"patchline" : 								{
									"source" : [ "obj-28", 0 ],
									"destination" : [ "obj-29", 1 ],
									"hidden" : 0,
									"midpoints" : [  ]
								}

							}
, 							{
								"patchline" : 								{
									"source" : [ "obj-27", 0 ],
									"destination" : [ "obj-28", 0 ],
									"hidden" : 0,
									"midpoints" : [  ]
								}

							}
, 							{
								"patchline" : 								{
									"source" : [ "obj-22", 0 ],
									"destination" : [ "obj-20", 0 ],
									"hidden" : 0,
									"midpoints" : [  ]
								}

							}
, 							{
								"patchline" : 								{
									"source" : [ "obj-22", 0 ],
									"destination" : [ "obj-18", 0 ],
									"hidden" : 0,
									"midpoints" : [  ]
								}

							}
, 							{
								"patchline" : 								{
									"source" : [ "obj-20", 0 ],
									"destination" : [ "obj-31", 0 ],
									"hidden" : 0,
									"midpoints" : [  ]
								}

							}
, 							{
								"patchline" : 								{
									"source" : [ "obj-20", 0 ],
									"destination" : [ "obj-19", 0 ],
									"hidden" : 0,
									"midpoints" : [  ]
								}

							}
, 							{
								"patchline" : 								{
									"source" : [ "obj-2", 0 ],
									"destination" : [ "obj-4", 0 ],
									"hidden" : 0,
									"midpoints" : [  ]
								}

							}
, 							{
								"patchline" : 								{
									"source" : [ "obj-2", 1 ],
									"destination" : [ "obj-3", 0 ],
									"hidden" : 0,
									"midpoints" : [  ]
								}

							}
, 							{
								"patchline" : 								{
									"source" : [ "obj-19", 0 ],
									"destination" : [ "obj-20", 0 ],
									"hidden" : 0,
									"midpoints" : [  ]
								}

							}
, 							{
								"patchline" : 								{
									"source" : [ "obj-18", 0 ],
									"destination" : [ "obj-27", 0 ],
									"hidden" : 0,
									"midpoints" : [  ]
								}

							}
, 							{
								"patchline" : 								{
									"source" : [ "obj-18", 0 ],
									"destination" : [ "obj-17", 0 ],
									"hidden" : 0,
									"midpoints" : [  ]
								}

							}
, 							{
								"patchline" : 								{
									"source" : [ "obj-17", 0 ],
									"destination" : [ "obj-18", 0 ],
									"hidden" : 0,
									"midpoints" : [  ]
								}

							}
, 							{
								"patchline" : 								{
									"source" : [ "obj-16", 0 ],
									"destination" : [ "obj-20", 0 ],
									"hidden" : 0,
									"midpoints" : [  ]
								}

							}
, 							{
								"patchline" : 								{
									"source" : [ "obj-14", 0 ],
									"destination" : [ "obj-18", 0 ],
									"hidden" : 0,
									"midpoints" : [  ]
								}

							}
, 							{
								"patchline" : 								{
									"source" : [ "obj-13", 0 ],
									"destination" : [ "obj-12", 0 ],
									"hidden" : 0,
									"midpoints" : [  ]
								}

							}
, 							{
								"patchline" : 								{
									"source" : [ "obj-13", 1 ],
									"destination" : [ "obj-11", 0 ],
									"hidden" : 0,
									"midpoints" : [  ]
								}

							}
, 							{
								"patchline" : 								{
									"source" : [ "obj-12", 0 ],
									"destination" : [ "obj-16", 0 ],
									"hidden" : 0,
									"midpoints" : [  ]
								}

							}
, 							{
								"patchline" : 								{
									"source" : [ "obj-11", 0 ],
									"destination" : [ "obj-16", 0 ],
									"hidden" : 0,
									"midpoints" : [  ]
								}

							}
 ]
					}
,
					"saved_object_attributes" : 					{
						"globalpatchername" : "",
						"fontface" : 0,
						"fontsize" : 12.0,
						"default_fontface" : 0,
						"default_fontname" : "Arial",
						"fontname" : "Arial",
						"default_fontsize" : 12.0
					}

				}

			}
, 			{
				"box" : 				{
					"maxclass" : "message",
					"text" : "53",
					"outlettype" : [ "" ],
					"fontsize" : 12.0,
					"patching_rect" : [ 134.0, 269.0, 149.0, 18.0 ],
					"numinlets" : 2,
					"id" : "obj-34",
					"fontname" : "Arial",
					"numoutlets" : 1
				}

			}
, 			{
				"box" : 				{
					"maxclass" : "newobj",
					"text" : "notein",
					"outlettype" : [ "int", "int", "int" ],
					"fontsize" : 12.0,
					"patching_rect" : [ 243.5, 111.0, 43.0, 20.0 ],
					"numinlets" : 1,
					"id" : "obj-1",
					"fontname" : "Arial",
					"numoutlets" : 3
				}

			}
 ],
		"lines" : [ 			{
				"patchline" : 				{
					"source" : [ "obj-3", 0 ],
					"destination" : [ "obj-49", 2 ],
					"hidden" : 0,
					"midpoints" : [  ]
				}

			}
, 			{
				"patchline" : 				{
					"source" : [ "obj-56", 0 ],
					"destination" : [ "obj-59", 0 ],
					"hidden" : 0,
					"midpoints" : [  ]
				}

			}
, 			{
				"patchline" : 				{
					"source" : [ "obj-49", 1 ],
					"destination" : [ "obj-56", 0 ],
					"hidden" : 0,
					"midpoints" : [  ]
				}

			}
, 			{
				"patchline" : 				{
					"source" : [ "obj-49", 1 ],
					"destination" : [ "obj-53", 1 ],
					"hidden" : 0,
					"midpoints" : [  ]
				}

			}
, 			{
				"patchline" : 				{
					"source" : [ "obj-49", 0 ],
					"destination" : [ "obj-34", 1 ],
					"hidden" : 0,
					"midpoints" : [  ]
				}

			}
, 			{
				"patchline" : 				{
					"source" : [ "obj-1", 0 ],
					"destination" : [ "obj-49", 0 ],
					"hidden" : 0,
					"midpoints" : [  ]
				}

			}
, 			{
				"patchline" : 				{
					"source" : [ "obj-1", 1 ],
					"destination" : [ "obj-49", 1 ],
					"hidden" : 0,
					"midpoints" : [  ]
				}

			}
 ]
	}

}
