{
	"patcher" : 	{
		"fileversion" : 1,
		"appversion" : 		{
			"major" : 5,
			"minor" : 1,
			"revision" : 9
		}
,
		"rect" : [ 222.0, 92.0, 1101.0, 653.0 ],
		"bglocked" : 0,
		"defrect" : [ 222.0, 92.0, 1101.0, 653.0 ],
		"openrect" : [ 0.0, 0.0, 0.0, 0.0 ],
		"openinpresentation" : 0,
		"default_fontsize" : 12.0,
		"default_fontface" : 0,
		"default_fontname" : "Arial",
		"gridonopen" : 0,
		"gridsize" : [ 15.0, 15.0 ],
		"gridsnaponopen" : 0,
		"toolbarvisible" : 1,
		"boxanimatetime" : 200,
		"imprint" : 0,
		"enablehscroll" : 1,
		"enablevscroll" : 1,
		"devicewidth" : 0.0,
		"boxes" : [ 			{
				"box" : 				{
					"maxclass" : "newobj",
					"text" : "loadbang",
					"fontsize" : 12.0,
					"numinlets" : 1,
					"numoutlets" : 1,
					"id" : "obj-108",
					"fontname" : "Arial",
					"patching_rect" : [ 383.0, 373.0, 60.0, 20.0 ],
					"outlettype" : [ "bang" ]
				}

			}
, 			{
				"box" : 				{
					"maxclass" : "newobj",
					"text" : "sel 1",
					"fontsize" : 12.0,
					"numinlets" : 2,
					"numoutlets" : 2,
					"id" : "obj-107",
					"fontname" : "Arial",
					"patching_rect" : [ 339.0, 554.0, 36.0, 20.0 ],
					"outlettype" : [ "bang", "" ]
				}

			}
, 			{
				"box" : 				{
					"maxclass" : "message",
					"text" : "clear",
					"fontsize" : 12.0,
					"numinlets" : 2,
					"numoutlets" : 1,
					"id" : "obj-106",
					"fontname" : "Arial",
					"patching_rect" : [ 239.0, 586.0, 37.0, 18.0 ],
					"outlettype" : [ "" ]
				}

			}
, 			{
				"box" : 				{
					"maxclass" : "message",
					"text" : "set sample",
					"fontsize" : 12.0,
					"numinlets" : 2,
					"numoutlets" : 1,
					"id" : "obj-92",
					"fontname" : "Arial",
					"patching_rect" : [ 383.0, 399.0, 69.0, 18.0 ],
					"outlettype" : [ "" ]
				}

			}
, 			{
				"box" : 				{
					"maxclass" : "waveform~",
					"buffername" : "sample1",
					"numinlets" : 5,
					"textcolor" : [  ],
					"numoutlets" : 6,
					"id" : "obj-90",
					"patching_rect" : [ 385.0, 424.0, 256.0, 64.0 ],
					"outlettype" : [ "float", "float", "float", "float", "list", "" ]
				}

			}
, 			{
				"box" : 				{
					"maxclass" : "number",
					"fontsize" : 12.0,
					"numinlets" : 1,
					"numoutlets" : 2,
					"id" : "obj-102",
					"fontname" : "Arial",
					"patching_rect" : [ 892.0, 69.0, 50.0, 20.0 ],
					"outlettype" : [ "int", "bang" ]
				}

			}
, 			{
				"box" : 				{
					"maxclass" : "newobj",
					"text" : "* 500",
					"fontsize" : 12.0,
					"numinlets" : 2,
					"numoutlets" : 1,
					"id" : "obj-99",
					"fontname" : "Arial",
					"patching_rect" : [ 952.0, 99.0, 39.0, 20.0 ],
					"outlettype" : [ "int" ]
				}

			}
, 			{
				"box" : 				{
					"maxclass" : "newobj",
					"text" : "* 2000",
					"fontsize" : 12.0,
					"numinlets" : 2,
					"numoutlets" : 1,
					"id" : "obj-98",
					"fontname" : "Arial",
					"patching_rect" : [ 892.0, 99.0, 45.0, 20.0 ],
					"outlettype" : [ "int" ]
				}

			}
, 			{
				"box" : 				{
					"maxclass" : "newobj",
					"text" : "* 1000",
					"fontsize" : 12.0,
					"numinlets" : 2,
					"numoutlets" : 1,
					"id" : "obj-96",
					"fontname" : "Arial",
					"patching_rect" : [ 817.0, 99.0, 45.0, 20.0 ],
					"outlettype" : [ "int" ]
				}

			}
, 			{
				"box" : 				{
					"maxclass" : "newobj",
					"text" : "p whatever",
					"fontsize" : 12.0,
					"numinlets" : 3,
					"numoutlets" : 1,
					"id" : "obj-94",
					"fontname" : "Arial",
					"patching_rect" : [ 682.0, 324.0, 69.0, 20.0 ],
					"outlettype" : [ "signal" ],
					"patcher" : 					{
						"fileversion" : 1,
						"appversion" : 						{
							"major" : 5,
							"minor" : 1,
							"revision" : 9
						}
,
						"rect" : [ 25.0, 70.0, 640.0, 480.0 ],
						"bglocked" : 0,
						"defrect" : [ 25.0, 70.0, 640.0, 480.0 ],
						"openrect" : [ 0.0, 0.0, 0.0, 0.0 ],
						"openinpresentation" : 0,
						"default_fontsize" : 12.0,
						"default_fontface" : 0,
						"default_fontname" : "Arial",
						"gridonopen" : 0,
						"gridsize" : [ 15.0, 15.0 ],
						"gridsnaponopen" : 0,
						"toolbarvisible" : 1,
						"boxanimatetime" : 200,
						"imprint" : 0,
						"enablehscroll" : 1,
						"enablevscroll" : 1,
						"devicewidth" : 0.0,
						"boxes" : [ 							{
								"box" : 								{
									"maxclass" : "newobj",
									"text" : "sel 1 0",
									"fontsize" : 12.0,
									"numinlets" : 1,
									"numoutlets" : 3,
									"id" : "obj-89",
									"fontname" : "Arial",
									"patching_rect" : [ 395.0, 100.0, 46.0, 20.0 ],
									"outlettype" : [ "bang", "bang", "" ]
								}

							}
, 							{
								"box" : 								{
									"maxclass" : "newobj",
									"text" : "+ 1",
									"fontsize" : 11.595187,
									"numinlets" : 2,
									"numoutlets" : 1,
									"id" : "obj-18",
									"fontname" : "Arial",
									"patching_rect" : [ 50.0, 163.0, 32.0, 20.0 ],
									"outlettype" : [ "int" ]
								}

							}
, 							{
								"box" : 								{
									"maxclass" : "newobj",
									"text" : "selector~ 2 1",
									"fontsize" : 11.595187,
									"numinlets" : 3,
									"numoutlets" : 1,
									"id" : "obj-20",
									"fontname" : "Arial",
									"patching_rect" : [ 50.0, 190.0, 142.0, 20.0 ],
									"outlettype" : [ "signal" ]
								}

							}
, 							{
								"box" : 								{
									"maxclass" : "newobj",
									"text" : "+~ 500",
									"fontsize" : 11.595187,
									"numinlets" : 2,
									"numoutlets" : 1,
									"id" : "obj-22",
									"fontname" : "Arial",
									"patching_rect" : [ 395.0, 205.0, 45.0, 20.0 ],
									"outlettype" : [ "signal" ]
								}

							}
, 							{
								"box" : 								{
									"maxclass" : "newobj",
									"text" : "*~ 500",
									"fontsize" : 11.595187,
									"numinlets" : 2,
									"numoutlets" : 1,
									"id" : "obj-23",
									"fontname" : "Arial",
									"patching_rect" : [ 395.0, 181.0, 42.0, 20.0 ],
									"outlettype" : [ "signal" ]
								}

							}
, 							{
								"box" : 								{
									"maxclass" : "message",
									"text" : "2.",
									"fontsize" : 11.595187,
									"numinlets" : 2,
									"numoutlets" : 1,
									"id" : "obj-24",
									"fontname" : "Arial",
									"patching_rect" : [ 423.0, 134.0, 21.0, 18.0 ],
									"outlettype" : [ "" ]
								}

							}
, 							{
								"box" : 								{
									"maxclass" : "message",
									"text" : "0.",
									"fontsize" : 11.595187,
									"numinlets" : 2,
									"numoutlets" : 1,
									"id" : "obj-25",
									"fontname" : "Arial",
									"patching_rect" : [ 395.0, 134.0, 21.5, 18.0 ],
									"outlettype" : [ "" ]
								}

							}
, 							{
								"box" : 								{
									"maxclass" : "newobj",
									"text" : "phasor~",
									"fontsize" : 11.595187,
									"numinlets" : 2,
									"numoutlets" : 1,
									"id" : "obj-26",
									"fontname" : "Arial",
									"patching_rect" : [ 395.0, 157.0, 51.0, 20.0 ],
									"outlettype" : [ "signal" ]
								}

							}
, 							{
								"box" : 								{
									"maxclass" : "newobj",
									"text" : "line~",
									"fontsize" : 11.595187,
									"numinlets" : 2,
									"numoutlets" : 2,
									"id" : "obj-33",
									"fontname" : "Arial",
									"patching_rect" : [ 110.0, 160.0, 35.0, 20.0 ],
									"outlettype" : [ "signal", "bang" ]
								}

							}
, 							{
								"box" : 								{
									"maxclass" : "inlet",
									"numinlets" : 0,
									"numoutlets" : 1,
									"id" : "obj-90",
									"patching_rect" : [ 50.0, 40.0, 25.0, 25.0 ],
									"outlettype" : [ "int" ],
									"comment" : ""
								}

							}
, 							{
								"box" : 								{
									"maxclass" : "inlet",
									"numinlets" : 0,
									"numoutlets" : 1,
									"id" : "obj-91",
									"patching_rect" : [ 110.0, 40.0, 25.0, 25.0 ],
									"outlettype" : [ "" ],
									"comment" : ""
								}

							}
, 							{
								"box" : 								{
									"maxclass" : "inlet",
									"numinlets" : 0,
									"numoutlets" : 1,
									"id" : "obj-92",
									"patching_rect" : [ 395.0, 40.0, 25.0, 25.0 ],
									"outlettype" : [ "int" ],
									"comment" : ""
								}

							}
, 							{
								"box" : 								{
									"maxclass" : "outlet",
									"numinlets" : 1,
									"numoutlets" : 0,
									"id" : "obj-93",
									"patching_rect" : [ 50.0, 287.5, 25.0, 25.0 ],
									"comment" : ""
								}

							}
 ],
						"lines" : [ 							{
								"patchline" : 								{
									"source" : [ "obj-20", 0 ],
									"destination" : [ "obj-93", 0 ],
									"hidden" : 0,
									"midpoints" : [  ]
								}

							}
, 							{
								"patchline" : 								{
									"source" : [ "obj-92", 0 ],
									"destination" : [ "obj-89", 0 ],
									"hidden" : 0,
									"midpoints" : [  ]
								}

							}
, 							{
								"patchline" : 								{
									"source" : [ "obj-91", 0 ],
									"destination" : [ "obj-33", 0 ],
									"hidden" : 0,
									"midpoints" : [  ]
								}

							}
, 							{
								"patchline" : 								{
									"source" : [ "obj-90", 0 ],
									"destination" : [ "obj-18", 0 ],
									"hidden" : 0,
									"midpoints" : [  ]
								}

							}
, 							{
								"patchline" : 								{
									"source" : [ "obj-89", 1 ],
									"destination" : [ "obj-25", 0 ],
									"hidden" : 0,
									"midpoints" : [  ]
								}

							}
, 							{
								"patchline" : 								{
									"source" : [ "obj-89", 0 ],
									"destination" : [ "obj-24", 0 ],
									"hidden" : 0,
									"midpoints" : [  ]
								}

							}
, 							{
								"patchline" : 								{
									"source" : [ "obj-22", 0 ],
									"destination" : [ "obj-20", 2 ],
									"hidden" : 0,
									"midpoints" : [ 404.5, 142.0, 182.5, 142.0 ]
								}

							}
, 							{
								"patchline" : 								{
									"source" : [ "obj-33", 0 ],
									"destination" : [ "obj-20", 1 ],
									"hidden" : 0,
									"midpoints" : [  ]
								}

							}
, 							{
								"patchline" : 								{
									"source" : [ "obj-18", 0 ],
									"destination" : [ "obj-20", 0 ],
									"hidden" : 0,
									"midpoints" : [  ]
								}

							}
, 							{
								"patchline" : 								{
									"source" : [ "obj-24", 0 ],
									"destination" : [ "obj-26", 0 ],
									"hidden" : 0,
									"midpoints" : [  ]
								}

							}
, 							{
								"patchline" : 								{
									"source" : [ "obj-25", 0 ],
									"destination" : [ "obj-26", 0 ],
									"hidden" : 0,
									"midpoints" : [  ]
								}

							}
, 							{
								"patchline" : 								{
									"source" : [ "obj-26", 0 ],
									"destination" : [ "obj-23", 0 ],
									"hidden" : 0,
									"midpoints" : [  ]
								}

							}
, 							{
								"patchline" : 								{
									"source" : [ "obj-23", 0 ],
									"destination" : [ "obj-22", 0 ],
									"hidden" : 0,
									"midpoints" : [  ]
								}

							}
 ]
					}
,
					"saved_object_attributes" : 					{
						"globalpatchername" : "",
						"fontface" : 0,
						"fontsize" : 12.0,
						"default_fontface" : 0,
						"default_fontname" : "Arial",
						"fontname" : "Arial",
						"default_fontsize" : 12.0
					}

				}

			}
, 			{
				"box" : 				{
					"maxclass" : "toggle",
					"numinlets" : 1,
					"numoutlets" : 1,
					"id" : "obj-87",
					"patching_rect" : [ 1027.0, 189.0, 20.0, 20.0 ],
					"outlettype" : [ "int" ]
				}

			}
, 			{
				"box" : 				{
					"maxclass" : "number",
					"fontsize" : 12.0,
					"numinlets" : 1,
					"numoutlets" : 2,
					"id" : "obj-83",
					"fontname" : "Arial",
					"patching_rect" : [ 697.0, 84.0, 50.0, 20.0 ],
					"outlettype" : [ "int", "bang" ]
				}

			}
, 			{
				"box" : 				{
					"maxclass" : "newobj",
					"text" : "r buffersize",
					"fontsize" : 12.0,
					"numinlets" : 0,
					"numoutlets" : 1,
					"id" : "obj-81",
					"fontname" : "Arial",
					"patching_rect" : [ 697.0, 54.0, 70.0, 20.0 ],
					"outlettype" : [ "" ]
				}

			}
, 			{
				"box" : 				{
					"maxclass" : "message",
					"text" : "startloop",
					"fontsize" : 12.0,
					"numinlets" : 2,
					"numoutlets" : 1,
					"id" : "obj-69",
					"fontname" : "Arial",
					"patching_rect" : [ 959.0, 430.0, 58.0, 18.0 ],
					"outlettype" : [ "" ]
				}

			}
, 			{
				"box" : 				{
					"maxclass" : "toggle",
					"numinlets" : 1,
					"numoutlets" : 1,
					"id" : "obj-70",
					"patching_rect" : [ 914.0, 400.0, 20.0, 20.0 ],
					"outlettype" : [ "int" ]
				}

			}
, 			{
				"box" : 				{
					"maxclass" : "newobj",
					"text" : "sig~",
					"fontsize" : 12.0,
					"numinlets" : 1,
					"numoutlets" : 1,
					"id" : "obj-73",
					"fontname" : "Arial",
					"patching_rect" : [ 914.0, 430.0, 33.0, 20.0 ],
					"outlettype" : [ "signal" ]
				}

			}
, 			{
				"box" : 				{
					"maxclass" : "newobj",
					"text" : "groove~ sample",
					"fontsize" : 12.0,
					"numinlets" : 3,
					"numoutlets" : 2,
					"id" : "obj-45",
					"fontname" : "Arial",
					"patching_rect" : [ 944.0, 475.0, 96.0, 20.0 ],
					"outlettype" : [ "signal", "signal" ]
				}

			}
, 			{
				"box" : 				{
					"maxclass" : "ezdac~",
					"numinlets" : 2,
					"numoutlets" : 0,
					"id" : "obj-74",
					"patching_rect" : [ 689.0, 565.0, 45.0, 45.0 ]
				}

			}
, 			{
				"box" : 				{
					"maxclass" : "gain~",
					"numinlets" : 2,
					"numoutlets" : 2,
					"id" : "obj-27",
					"patching_rect" : [ 689.0, 385.0, 20.0, 140.0 ],
					"outlettype" : [ "signal", "int" ]
				}

			}
, 			{
				"box" : 				{
					"maxclass" : "umenu",
					"labelclick" : 1,
					"fontsize" : 11.595187,
					"items" : [ "line", ",", "loop" ],
					"types" : [  ],
					"numinlets" : 1,
					"numoutlets" : 3,
					"id" : "obj-19",
					"fontname" : "Arial",
					"patching_rect" : [ 622.0, 234.0, 59.0, 20.0 ],
					"outlettype" : [ "int", "", "" ]
				}

			}
, 			{
				"box" : 				{
					"maxclass" : "message",
					"text" : "0, $1 500",
					"fontsize" : 11.595187,
					"numinlets" : 2,
					"numoutlets" : 1,
					"id" : "obj-75",
					"fontname" : "Arial",
					"patching_rect" : [ 817.0, 204.0, 59.0, 18.0 ],
					"outlettype" : [ "" ]
				}

			}
, 			{
				"box" : 				{
					"maxclass" : "message",
					"text" : "0, $1 2000",
					"fontsize" : 11.595187,
					"numinlets" : 2,
					"numoutlets" : 1,
					"id" : "obj-76",
					"fontname" : "Arial",
					"patching_rect" : [ 782.0, 182.333328, 65.0, 18.0 ],
					"outlettype" : [ "" ]
				}

			}
, 			{
				"box" : 				{
					"maxclass" : "message",
					"text" : "$1, 0 1000",
					"fontsize" : 11.595187,
					"numinlets" : 2,
					"numoutlets" : 1,
					"id" : "obj-31",
					"fontname" : "Arial",
					"patching_rect" : [ 742.0, 159.0, 65.0, 18.0 ],
					"outlettype" : [ "" ]
				}

			}
, 			{
				"box" : 				{
					"maxclass" : "message",
					"text" : "0, $1 1000",
					"fontsize" : 11.595187,
					"numinlets" : 2,
					"numoutlets" : 1,
					"id" : "obj-77",
					"fontname" : "Arial",
					"patching_rect" : [ 682.0, 159.0, 65.0, 18.0 ],
					"outlettype" : [ "" ]
				}

			}
, 			{
				"box" : 				{
					"maxclass" : "newobj",
					"text" : "play~ sample",
					"fontsize" : 11.595187,
					"numinlets" : 1,
					"numoutlets" : 1,
					"id" : "obj-34",
					"fontname" : "Arial",
					"patching_rect" : [ 682.0, 354.0, 79.0, 20.0 ],
					"outlettype" : [ "signal" ]
				}

			}
, 			{
				"box" : 				{
					"maxclass" : "comment",
					"text" : "play one second forwards at original speed",
					"fontsize" : 11.595187,
					"numinlets" : 1,
					"numoutlets" : 0,
					"id" : "obj-78",
					"fontname" : "Arial",
					"patching_rect" : [ 814.0, 140.0, 229.0, 20.0 ]
				}

			}
, 			{
				"box" : 				{
					"maxclass" : "comment",
					"text" : "play one second backwards at original speed",
					"fontsize" : 11.595187,
					"numinlets" : 1,
					"numoutlets" : 0,
					"id" : "obj-80",
					"fontname" : "Arial",
					"patching_rect" : [ 836.0, 160.0, 240.0, 20.0 ]
				}

			}
, 			{
				"box" : 				{
					"maxclass" : "comment",
					"text" : "play at half speed",
					"fontsize" : 11.595187,
					"numinlets" : 1,
					"numoutlets" : 0,
					"id" : "obj-82",
					"fontname" : "Arial",
					"patching_rect" : [ 859.0, 180.0, 100.0, 20.0 ]
				}

			}
, 			{
				"box" : 				{
					"maxclass" : "comment",
					"text" : "play at double speed",
					"fontsize" : 11.595187,
					"numinlets" : 1,
					"numoutlets" : 0,
					"id" : "obj-84",
					"fontname" : "Arial",
					"patching_rect" : [ 875.0, 200.0, 116.0, 20.0 ]
				}

			}
, 			{
				"box" : 				{
					"maxclass" : "newobj",
					"text" : "buffer~ sample 3000",
					"fontsize" : 12.0,
					"numinlets" : 1,
					"numoutlets" : 2,
					"id" : "obj-17",
					"fontname" : "Arial",
					"patching_rect" : [ 17.0, 599.0, 120.0, 20.0 ],
					"outlettype" : [ "float", "bang" ]
				}

			}
, 			{
				"box" : 				{
					"maxclass" : "newobj",
					"text" : "record~ sample",
					"fontsize" : 12.0,
					"numinlets" : 3,
					"numoutlets" : 1,
					"id" : "obj-16",
					"fontname" : "Arial",
					"patching_rect" : [ 18.0, 571.0, 94.0, 20.0 ],
					"outlettype" : [ "signal" ]
				}

			}
, 			{
				"box" : 				{
					"maxclass" : "button",
					"numinlets" : 1,
					"numoutlets" : 1,
					"id" : "obj-68",
					"patching_rect" : [ 215.0, 336.0, 20.0, 20.0 ],
					"outlettype" : [ "bang" ]
				}

			}
, 			{
				"box" : 				{
					"maxclass" : "ezdac~",
					"numinlets" : 2,
					"numoutlets" : 0,
					"id" : "obj-66",
					"patching_rect" : [ 103.0, 8.0, 45.0, 45.0 ]
				}

			}
, 			{
				"box" : 				{
					"maxclass" : "newobj",
					"text" : "t 1 0",
					"fontsize" : 12.0,
					"numinlets" : 1,
					"numoutlets" : 2,
					"id" : "obj-58",
					"fontname" : "Arial",
					"patching_rect" : [ 215.0, 380.0, 34.0, 20.0 ],
					"outlettype" : [ "int", "int" ]
				}

			}
, 			{
				"box" : 				{
					"maxclass" : "newobj",
					"text" : "loadbang",
					"fontsize" : 12.0,
					"numinlets" : 1,
					"numoutlets" : 1,
					"id" : "obj-55",
					"fontname" : "Arial",
					"patching_rect" : [ 215.0, 357.0, 60.0, 20.0 ],
					"outlettype" : [ "bang" ]
				}

			}
, 			{
				"box" : 				{
					"maxclass" : "newobj",
					"text" : "t 1",
					"fontsize" : 12.0,
					"numinlets" : 1,
					"numoutlets" : 1,
					"id" : "obj-51",
					"fontname" : "Arial",
					"patching_rect" : [ 289.0, 409.0, 24.0, 20.0 ],
					"outlettype" : [ "int" ]
				}

			}
, 			{
				"box" : 				{
					"maxclass" : "multislider",
					"setminmax" : [ 0.0, 1.0 ],
					"numinlets" : 1,
					"numoutlets" : 2,
					"id" : "obj-97",
					"patching_rect" : [ 391.0, 227.0, 192.0, 67.0 ],
					"outlettype" : [ "", "" ],
					"setstyle" : 5
				}

			}
, 			{
				"box" : 				{
					"maxclass" : "newobj",
					"text" : "snapshot~ 5",
					"fontsize" : 12.0,
					"numinlets" : 2,
					"numoutlets" : 1,
					"id" : "obj-50",
					"fontname" : "Arial",
					"patching_rect" : [ 390.0, 196.0, 76.0, 20.0 ],
					"outlettype" : [ "float" ]
				}

			}
, 			{
				"box" : 				{
					"maxclass" : "button",
					"numinlets" : 1,
					"numoutlets" : 1,
					"id" : "obj-48",
					"patching_rect" : [ 313.0, 265.0, 71.0, 71.0 ],
					"outlettype" : [ "bang" ]
				}

			}
, 			{
				"box" : 				{
					"maxclass" : "toggle",
					"numinlets" : 1,
					"numoutlets" : 1,
					"id" : "obj-46",
					"patching_rect" : [ 237.0, 528.0, 20.0, 20.0 ],
					"outlettype" : [ "int" ]
				}

			}
, 			{
				"box" : 				{
					"maxclass" : "newobj",
					"text" : "t 1 0 0",
					"fontsize" : 12.0,
					"numinlets" : 1,
					"numoutlets" : 3,
					"id" : "obj-44",
					"fontname" : "Arial",
					"patching_rect" : [ 274.0, 478.0, 46.0, 20.0 ],
					"outlettype" : [ "int", "int", "int" ]
				}

			}
, 			{
				"box" : 				{
					"maxclass" : "newobj",
					"text" : "t 1 0 1",
					"fontsize" : 12.0,
					"numinlets" : 1,
					"numoutlets" : 3,
					"id" : "obj-42",
					"fontname" : "Arial",
					"patching_rect" : [ 214.0, 478.0, 46.0, 20.0 ],
					"outlettype" : [ "int", "int", "int" ]
				}

			}
, 			{
				"box" : 				{
					"maxclass" : "newobj",
					"text" : "gate",
					"fontsize" : 12.0,
					"numinlets" : 2,
					"numoutlets" : 1,
					"id" : "obj-40",
					"fontname" : "Arial",
					"patching_rect" : [ 274.0, 446.0, 34.0, 20.0 ],
					"outlettype" : [ "" ]
				}

			}
, 			{
				"box" : 				{
					"maxclass" : "newobj",
					"text" : "gate",
					"fontsize" : 12.0,
					"numinlets" : 2,
					"numoutlets" : 1,
					"id" : "obj-38",
					"fontname" : "Arial",
					"patching_rect" : [ 214.0, 446.0, 34.0, 20.0 ],
					"outlettype" : [ "" ]
				}

			}
, 			{
				"box" : 				{
					"maxclass" : "newobj",
					"text" : "t 1",
					"fontsize" : 12.0,
					"numinlets" : 1,
					"numoutlets" : 1,
					"id" : "obj-37",
					"fontname" : "Arial",
					"patching_rect" : [ 227.0, 409.0, 24.0, 20.0 ],
					"outlettype" : [ "int" ]
				}

			}
, 			{
				"box" : 				{
					"maxclass" : "newobj",
					"text" : "edge~",
					"fontsize" : 12.0,
					"numinlets" : 1,
					"numoutlets" : 2,
					"id" : "obj-36",
					"fontname" : "Arial",
					"patching_rect" : [ 286.0, 229.0, 44.0, 20.0 ],
					"outlettype" : [ "bang", "bang" ]
				}

			}
, 			{
				"box" : 				{
					"maxclass" : "newobj",
					"text" : "thresh~ 0.2 0.2",
					"fontsize" : 12.0,
					"numinlets" : 3,
					"numoutlets" : 1,
					"id" : "obj-35",
					"fontname" : "Arial",
					"patching_rect" : [ 286.0, 199.0, 91.0, 20.0 ],
					"outlettype" : [ "signal" ]
				}

			}
, 			{
				"box" : 				{
					"maxclass" : "comment",
					"text" : "Down",
					"fontsize" : 12.0,
					"numinlets" : 1,
					"numoutlets" : 0,
					"id" : "obj-33",
					"fontname" : "Arial",
					"patching_rect" : [ 421.0, 78.0, 39.0, 20.0 ]
				}

			}
, 			{
				"box" : 				{
					"maxclass" : "comment",
					"text" : "Up\n",
					"fontsize" : 12.0,
					"numinlets" : 1,
					"numoutlets" : 0,
					"id" : "obj-32",
					"fontname" : "Arial",
					"patching_rect" : [ 355.0, 80.0, 39.0, 20.0 ]
				}

			}
, 			{
				"box" : 				{
					"maxclass" : "flonum",
					"fontsize" : 12.0,
					"numinlets" : 1,
					"numoutlets" : 2,
					"id" : "obj-29",
					"fontname" : "Arial",
					"patching_rect" : [ 420.0, 105.0, 50.0, 20.0 ],
					"outlettype" : [ "float", "bang" ]
				}

			}
, 			{
				"box" : 				{
					"maxclass" : "flonum",
					"fontsize" : 12.0,
					"numinlets" : 1,
					"numoutlets" : 2,
					"id" : "obj-25",
					"fontname" : "Arial",
					"patching_rect" : [ 354.0, 107.0, 50.0, 20.0 ],
					"outlettype" : [ "float", "bang" ]
				}

			}
, 			{
				"box" : 				{
					"maxclass" : "newobj",
					"text" : "* 44.1",
					"fontsize" : 12.0,
					"numinlets" : 2,
					"numoutlets" : 1,
					"id" : "obj-23",
					"fontname" : "Arial",
					"patching_rect" : [ 421.0, 133.0, 42.0, 20.0 ],
					"outlettype" : [ "float" ]
				}

			}
, 			{
				"box" : 				{
					"maxclass" : "newobj",
					"text" : "* 44.1",
					"fontsize" : 12.0,
					"numinlets" : 2,
					"numoutlets" : 1,
					"id" : "obj-22",
					"fontname" : "Arial",
					"patching_rect" : [ 354.0, 136.0, 42.0, 20.0 ],
					"outlettype" : [ "float" ]
				}

			}
, 			{
				"box" : 				{
					"maxclass" : "newobj",
					"text" : "rampsmooth~",
					"fontsize" : 12.0,
					"numinlets" : 3,
					"numoutlets" : 1,
					"id" : "obj-21",
					"fontname" : "Arial",
					"patching_rect" : [ 286.0, 168.0, 154.0, 20.0 ],
					"outlettype" : [ "signal" ]
				}

			}
, 			{
				"box" : 				{
					"maxclass" : "newobj",
					"text" : "abs~",
					"fontsize" : 12.0,
					"numinlets" : 1,
					"numoutlets" : 1,
					"id" : "obj-20",
					"fontname" : "Arial",
					"patching_rect" : [ 286.0, 136.0, 37.0, 20.0 ],
					"outlettype" : [ "signal" ]
				}

			}
, 			{
				"box" : 				{
					"maxclass" : "gain~",
					"numinlets" : 2,
					"numoutlets" : 2,
					"id" : "obj-13",
					"patching_rect" : [ 41.0, 62.0, 118.0, 27.0 ],
					"outlettype" : [ "signal", "int" ]
				}

			}
, 			{
				"box" : 				{
					"maxclass" : "ezadc~",
					"numinlets" : 1,
					"numoutlets" : 2,
					"id" : "obj-3",
					"patching_rect" : [ 41.0, 6.0, 45.0, 45.0 ],
					"outlettype" : [ "signal", "signal" ]
				}

			}
, 			{
				"box" : 				{
					"maxclass" : "button",
					"numinlets" : 1,
					"numoutlets" : 1,
					"id" : "obj-7",
					"patching_rect" : [ 41.0, 396.0, 89.0, 89.0 ],
					"outlettype" : [ "bang" ]
				}

			}
, 			{
				"box" : 				{
					"maxclass" : "comment",
					"text" : "change threshold dynamically based on incuming amplitude",
					"linecount" : 3,
					"fontsize" : 12.0,
					"numinlets" : 1,
					"numoutlets" : 0,
					"id" : "obj-4",
					"fontname" : "Arial",
					"patching_rect" : [ 132.0, 139.5, 132.0, 48.0 ]
				}

			}
, 			{
				"box" : 				{
					"maxclass" : "newobj",
					"text" : "change",
					"fontsize" : 12.0,
					"numinlets" : 1,
					"numoutlets" : 3,
					"id" : "obj-79",
					"fontname" : "Arial",
					"patching_rect" : [ 41.0, 271.0, 50.0, 20.0 ],
					"outlettype" : [ "", "int", "int" ]
				}

			}
, 			{
				"box" : 				{
					"maxclass" : "newobj",
					"text" : "delay 150",
					"fontsize" : 12.0,
					"numinlets" : 2,
					"numoutlets" : 1,
					"id" : "obj-72",
					"fontname" : "Arial",
					"patching_rect" : [ 117.0, 329.0, 63.0, 20.0 ],
					"outlettype" : [ "bang" ]
				}

			}
, 			{
				"box" : 				{
					"maxclass" : "newobj",
					"text" : "onebang 1",
					"fontsize" : 12.0,
					"numinlets" : 2,
					"numoutlets" : 2,
					"id" : "obj-71",
					"fontname" : "Arial",
					"patching_rect" : [ 41.0, 329.0, 67.0, 20.0 ],
					"outlettype" : [ "bang", "bang" ]
				}

			}
, 			{
				"box" : 				{
					"maxclass" : "newobj",
					"text" : "p autothresh",
					"fontsize" : 12.0,
					"numinlets" : 1,
					"numoutlets" : 1,
					"id" : "obj-60",
					"fontname" : "Arial",
					"patching_rect" : [ 108.0, 189.0, 77.0, 20.0 ],
					"outlettype" : [ "float" ],
					"patcher" : 					{
						"fileversion" : 1,
						"appversion" : 						{
							"major" : 5,
							"minor" : 1,
							"revision" : 9
						}
,
						"rect" : [ 442.0, 285.0, 353.0, 339.0 ],
						"bglocked" : 0,
						"defrect" : [ 442.0, 285.0, 353.0, 339.0 ],
						"openrect" : [ 0.0, 0.0, 0.0, 0.0 ],
						"openinpresentation" : 0,
						"default_fontsize" : 12.0,
						"default_fontface" : 0,
						"default_fontname" : "Arial",
						"gridonopen" : 0,
						"gridsize" : [ 15.0, 15.0 ],
						"gridsnaponopen" : 0,
						"toolbarvisible" : 1,
						"boxanimatetime" : 200,
						"imprint" : 0,
						"enablehscroll" : 1,
						"enablevscroll" : 1,
						"devicewidth" : 0.0,
						"boxes" : [ 							{
								"box" : 								{
									"maxclass" : "newobj",
									"text" : "+ 0.05",
									"fontsize" : 12.0,
									"numinlets" : 2,
									"numoutlets" : 1,
									"id" : "obj-3",
									"fontname" : "Arial",
									"patching_rect" : [ 22.568176, 237.0, 44.0, 20.0 ],
									"outlettype" : [ "float" ]
								}

							}
, 							{
								"box" : 								{
									"maxclass" : "comment",
									"text" : "average over last 2 seconds",
									"fontsize" : 12.0,
									"numinlets" : 1,
									"numoutlets" : 0,
									"id" : "obj-5",
									"fontname" : "Arial",
									"patching_rect" : [ 109.568176, 70.0, 173.0, 20.0 ]
								}

							}
, 							{
								"box" : 								{
									"maxclass" : "message",
									"text" : "$1 200",
									"fontsize" : 12.0,
									"numinlets" : 2,
									"numoutlets" : 1,
									"id" : "obj-106",
									"fontname" : "Arial",
									"patching_rect" : [ 22.568176, 174.0, 47.0, 18.0 ],
									"outlettype" : [ "" ]
								}

							}
, 							{
								"box" : 								{
									"maxclass" : "newobj",
									"text" : "line 0.",
									"fontsize" : 12.0,
									"numinlets" : 3,
									"numoutlets" : 2,
									"id" : "obj-104",
									"fontname" : "Arial",
									"patching_rect" : [ 22.568176, 201.0, 46.0, 20.0 ],
									"outlettype" : [ "", "" ]
								}

							}
, 							{
								"box" : 								{
									"maxclass" : "newobj",
									"text" : "speedlim 50",
									"fontsize" : 12.0,
									"numinlets" : 2,
									"numoutlets" : 1,
									"id" : "obj-50",
									"fontname" : "Arial",
									"patching_rect" : [ 23.0, 63.0, 75.0, 20.0 ],
									"outlettype" : [ "" ]
								}

							}
, 							{
								"box" : 								{
									"maxclass" : "newobj",
									"text" : "mean",
									"fontsize" : 11.595187,
									"numinlets" : 1,
									"numoutlets" : 2,
									"id" : "obj-64",
									"fontname" : "Arial",
									"patching_rect" : [ 22.568176, 147.0, 38.0, 20.0 ],
									"outlettype" : [ "float", "int" ]
								}

							}
, 							{
								"box" : 								{
									"maxclass" : "newobj",
									"text" : "pack 0. 0. 0. 0. 0. 0. 0. 0. 0. 0. 0. 0. 0. 0. 0. 0. 0. 0. 0. 0. 0.",
									"fontsize" : 11.595187,
									"numinlets" : 21,
									"numoutlets" : 1,
									"id" : "obj-65",
									"fontname" : "Arial",
									"patching_rect" : [ 23.0, 121.0, 306.0, 20.0 ],
									"outlettype" : [ "" ]
								}

							}
, 							{
								"box" : 								{
									"maxclass" : "newobj",
									"text" : "bucket 20",
									"fontsize" : 11.595187,
									"numinlets" : 1,
									"numoutlets" : 20,
									"id" : "obj-68",
									"fontname" : "Arial",
									"patching_rect" : [ 37.75, 95.0, 291.25, 20.0 ],
									"outlettype" : [ "", "", "", "", "", "", "", "", "", "", "", "", "", "", "", "", "", "", "", "" ]
								}

							}
, 							{
								"box" : 								{
									"maxclass" : "inlet",
									"numinlets" : 0,
									"numoutlets" : 1,
									"id" : "obj-107",
									"patching_rect" : [ 23.0, 16.0, 25.0, 25.0 ],
									"outlettype" : [ "float" ],
									"comment" : "From Peakamp (raw)"
								}

							}
, 							{
								"box" : 								{
									"maxclass" : "outlet",
									"numinlets" : 1,
									"numoutlets" : 0,
									"id" : "obj-108",
									"patching_rect" : [ 22.568176, 278.0, 25.0, 25.0 ],
									"comment" : "To Foote threshold"
								}

							}
 ],
						"lines" : [ 							{
								"patchline" : 								{
									"source" : [ "obj-104", 0 ],
									"destination" : [ "obj-3", 0 ],
									"hidden" : 0,
									"midpoints" : [  ]
								}

							}
, 							{
								"patchline" : 								{
									"source" : [ "obj-106", 0 ],
									"destination" : [ "obj-104", 0 ],
									"hidden" : 0,
									"midpoints" : [  ]
								}

							}
, 							{
								"patchline" : 								{
									"source" : [ "obj-107", 0 ],
									"destination" : [ "obj-50", 0 ],
									"hidden" : 0,
									"midpoints" : [  ]
								}

							}
, 							{
								"patchline" : 								{
									"source" : [ "obj-3", 0 ],
									"destination" : [ "obj-108", 0 ],
									"hidden" : 0,
									"midpoints" : [  ]
								}

							}
, 							{
								"patchline" : 								{
									"source" : [ "obj-50", 0 ],
									"destination" : [ "obj-65", 0 ],
									"hidden" : 0,
									"midpoints" : [  ]
								}

							}
, 							{
								"patchline" : 								{
									"source" : [ "obj-50", 0 ],
									"destination" : [ "obj-68", 0 ],
									"hidden" : 0,
									"midpoints" : [  ]
								}

							}
, 							{
								"patchline" : 								{
									"source" : [ "obj-64", 0 ],
									"destination" : [ "obj-106", 0 ],
									"hidden" : 0,
									"midpoints" : [  ]
								}

							}
, 							{
								"patchline" : 								{
									"source" : [ "obj-65", 0 ],
									"destination" : [ "obj-64", 0 ],
									"hidden" : 0,
									"midpoints" : [  ]
								}

							}
, 							{
								"patchline" : 								{
									"source" : [ "obj-68", 19 ],
									"destination" : [ "obj-65", 20 ],
									"hidden" : 0,
									"midpoints" : [  ]
								}

							}
, 							{
								"patchline" : 								{
									"source" : [ "obj-68", 18 ],
									"destination" : [ "obj-65", 19 ],
									"hidden" : 0,
									"midpoints" : [  ]
								}

							}
, 							{
								"patchline" : 								{
									"source" : [ "obj-68", 17 ],
									"destination" : [ "obj-65", 18 ],
									"hidden" : 0,
									"midpoints" : [  ]
								}

							}
, 							{
								"patchline" : 								{
									"source" : [ "obj-68", 16 ],
									"destination" : [ "obj-65", 17 ],
									"hidden" : 0,
									"midpoints" : [  ]
								}

							}
, 							{
								"patchline" : 								{
									"source" : [ "obj-68", 15 ],
									"destination" : [ "obj-65", 16 ],
									"hidden" : 0,
									"midpoints" : [  ]
								}

							}
, 							{
								"patchline" : 								{
									"source" : [ "obj-68", 14 ],
									"destination" : [ "obj-65", 15 ],
									"hidden" : 0,
									"midpoints" : [  ]
								}

							}
, 							{
								"patchline" : 								{
									"source" : [ "obj-68", 13 ],
									"destination" : [ "obj-65", 14 ],
									"hidden" : 0,
									"midpoints" : [  ]
								}

							}
, 							{
								"patchline" : 								{
									"source" : [ "obj-68", 12 ],
									"destination" : [ "obj-65", 13 ],
									"hidden" : 0,
									"midpoints" : [  ]
								}

							}
, 							{
								"patchline" : 								{
									"source" : [ "obj-68", 11 ],
									"destination" : [ "obj-65", 12 ],
									"hidden" : 0,
									"midpoints" : [  ]
								}

							}
, 							{
								"patchline" : 								{
									"source" : [ "obj-68", 10 ],
									"destination" : [ "obj-65", 11 ],
									"hidden" : 0,
									"midpoints" : [  ]
								}

							}
, 							{
								"patchline" : 								{
									"source" : [ "obj-68", 9 ],
									"destination" : [ "obj-65", 10 ],
									"hidden" : 0,
									"midpoints" : [  ]
								}

							}
, 							{
								"patchline" : 								{
									"source" : [ "obj-68", 8 ],
									"destination" : [ "obj-65", 9 ],
									"hidden" : 0,
									"midpoints" : [  ]
								}

							}
, 							{
								"patchline" : 								{
									"source" : [ "obj-68", 7 ],
									"destination" : [ "obj-65", 8 ],
									"hidden" : 0,
									"midpoints" : [  ]
								}

							}
, 							{
								"patchline" : 								{
									"source" : [ "obj-68", 6 ],
									"destination" : [ "obj-65", 7 ],
									"hidden" : 0,
									"midpoints" : [  ]
								}

							}
, 							{
								"patchline" : 								{
									"source" : [ "obj-68", 5 ],
									"destination" : [ "obj-65", 6 ],
									"hidden" : 0,
									"midpoints" : [  ]
								}

							}
, 							{
								"patchline" : 								{
									"source" : [ "obj-68", 4 ],
									"destination" : [ "obj-65", 5 ],
									"hidden" : 0,
									"midpoints" : [  ]
								}

							}
, 							{
								"patchline" : 								{
									"source" : [ "obj-68", 3 ],
									"destination" : [ "obj-65", 4 ],
									"hidden" : 0,
									"midpoints" : [  ]
								}

							}
, 							{
								"patchline" : 								{
									"source" : [ "obj-68", 2 ],
									"destination" : [ "obj-65", 3 ],
									"hidden" : 0,
									"midpoints" : [  ]
								}

							}
, 							{
								"patchline" : 								{
									"source" : [ "obj-68", 1 ],
									"destination" : [ "obj-65", 2 ],
									"hidden" : 0,
									"midpoints" : [  ]
								}

							}
, 							{
								"patchline" : 								{
									"source" : [ "obj-68", 0 ],
									"destination" : [ "obj-65", 1 ],
									"hidden" : 0,
									"midpoints" : [  ]
								}

							}
 ]
					}
,
					"saved_object_attributes" : 					{
						"globalpatchername" : "",
						"fontface" : 0,
						"fontsize" : 12.0,
						"default_fontface" : 0,
						"default_fontname" : "Arial",
						"fontname" : "Arial",
						"default_fontsize" : 12.0
					}

				}

			}
, 			{
				"box" : 				{
					"maxclass" : "comment",
					"text" : "Minimum time between each attack",
					"linecount" : 2,
					"fontsize" : 12.0,
					"numinlets" : 1,
					"numoutlets" : 0,
					"id" : "obj-43",
					"fontname" : "Arial",
					"patching_rect" : [ 162.0, 262.0, 123.0, 34.0 ]
				}

			}
, 			{
				"box" : 				{
					"maxclass" : "comment",
					"text" : "ms",
					"fontsize" : 12.0,
					"numinlets" : 1,
					"numoutlets" : 0,
					"id" : "obj-39",
					"fontname" : "Arial",
					"patching_rect" : [ 218.0, 303.0, 26.0, 20.0 ]
				}

			}
, 			{
				"box" : 				{
					"maxclass" : "flonum",
					"fontsize" : 12.0,
					"numinlets" : 1,
					"numoutlets" : 2,
					"id" : "obj-5",
					"fontname" : "Arial",
					"patching_rect" : [ 161.0, 301.0, 50.0, 20.0 ],
					"outlettype" : [ "float", "bang" ]
				}

			}
, 			{
				"box" : 				{
					"maxclass" : "newobj",
					"text" : "sel 1",
					"fontsize" : 12.0,
					"numinlets" : 2,
					"numoutlets" : 2,
					"id" : "obj-8",
					"fontname" : "Arial",
					"patching_rect" : [ 41.0, 301.0, 36.0, 20.0 ],
					"outlettype" : [ "bang", "" ]
				}

			}
, 			{
				"box" : 				{
					"maxclass" : "newobj",
					"text" : "> 0.2",
					"fontsize" : 12.0,
					"numinlets" : 2,
					"numoutlets" : 1,
					"id" : "obj-30",
					"fontname" : "Arial",
					"patching_rect" : [ 41.0, 245.0, 86.0, 20.0 ],
					"outlettype" : [ "int" ]
				}

			}
, 			{
				"box" : 				{
					"maxclass" : "newobj",
					"text" : "- 0.",
					"fontsize" : 12.0,
					"numinlets" : 2,
					"numoutlets" : 1,
					"id" : "obj-26",
					"fontname" : "Arial",
					"patching_rect" : [ 41.0, 219.0, 32.5, 20.0 ],
					"outlettype" : [ "float" ]
				}

			}
, 			{
				"box" : 				{
					"maxclass" : "newobj",
					"text" : "bucket",
					"fontsize" : 12.0,
					"numinlets" : 1,
					"numoutlets" : 1,
					"id" : "obj-28",
					"fontname" : "Arial",
					"patching_rect" : [ 41.0, 189.0, 46.0, 20.0 ],
					"outlettype" : [ "" ]
				}

			}
, 			{
				"box" : 				{
					"maxclass" : "newobj",
					"text" : "peakamp~ 1",
					"fontsize" : 12.0,
					"numinlets" : 2,
					"numoutlets" : 1,
					"id" : "obj-41",
					"fontname" : "Arial",
					"patching_rect" : [ 41.0, 146.0, 77.0, 20.0 ],
					"outlettype" : [ "float" ]
				}

			}
 ],
		"lines" : [ 			{
				"patchline" : 				{
					"source" : [ "obj-34", 0 ],
					"destination" : [ "obj-27", 0 ],
					"hidden" : 0,
					"midpoints" : [  ]
				}

			}
, 			{
				"patchline" : 				{
					"source" : [ "obj-94", 0 ],
					"destination" : [ "obj-34", 0 ],
					"hidden" : 0,
					"midpoints" : [  ]
				}

			}
, 			{
				"patchline" : 				{
					"source" : [ "obj-108", 0 ],
					"destination" : [ "obj-92", 0 ],
					"hidden" : 0,
					"midpoints" : [  ]
				}

			}
, 			{
				"patchline" : 				{
					"source" : [ "obj-46", 0 ],
					"destination" : [ "obj-16", 0 ],
					"hidden" : 0,
					"midpoints" : [  ]
				}

			}
, 			{
				"patchline" : 				{
					"source" : [ "obj-107", 0 ],
					"destination" : [ "obj-106", 0 ],
					"hidden" : 0,
					"midpoints" : [  ]
				}

			}
, 			{
				"patchline" : 				{
					"source" : [ "obj-46", 0 ],
					"destination" : [ "obj-107", 0 ],
					"hidden" : 0,
					"midpoints" : [  ]
				}

			}
, 			{
				"patchline" : 				{
					"source" : [ "obj-106", 0 ],
					"destination" : [ "obj-17", 0 ],
					"hidden" : 0,
					"midpoints" : [  ]
				}

			}
, 			{
				"patchline" : 				{
					"source" : [ "obj-13", 0 ],
					"destination" : [ "obj-16", 0 ],
					"hidden" : 0,
					"midpoints" : [ 50.5, 103.5, 27.5, 103.5 ]
				}

			}
, 			{
				"patchline" : 				{
					"source" : [ "obj-92", 0 ],
					"destination" : [ "obj-90", 0 ],
					"hidden" : 0,
					"midpoints" : [  ]
				}

			}
, 			{
				"patchline" : 				{
					"source" : [ "obj-69", 0 ],
					"destination" : [ "obj-45", 0 ],
					"hidden" : 0,
					"midpoints" : [  ]
				}

			}
, 			{
				"patchline" : 				{
					"source" : [ "obj-45", 0 ],
					"destination" : [ "obj-74", 1 ],
					"hidden" : 0,
					"midpoints" : [  ]
				}

			}
, 			{
				"patchline" : 				{
					"source" : [ "obj-45", 0 ],
					"destination" : [ "obj-74", 0 ],
					"hidden" : 0,
					"midpoints" : [  ]
				}

			}
, 			{
				"patchline" : 				{
					"source" : [ "obj-73", 0 ],
					"destination" : [ "obj-45", 0 ],
					"hidden" : 0,
					"midpoints" : [  ]
				}

			}
, 			{
				"patchline" : 				{
					"source" : [ "obj-70", 0 ],
					"destination" : [ "obj-73", 0 ],
					"hidden" : 0,
					"midpoints" : [  ]
				}

			}
, 			{
				"patchline" : 				{
					"source" : [ "obj-27", 0 ],
					"destination" : [ "obj-74", 1 ],
					"hidden" : 0,
					"midpoints" : [  ]
				}

			}
, 			{
				"patchline" : 				{
					"source" : [ "obj-27", 0 ],
					"destination" : [ "obj-74", 0 ],
					"hidden" : 0,
					"midpoints" : [  ]
				}

			}
, 			{
				"patchline" : 				{
					"source" : [ "obj-81", 0 ],
					"destination" : [ "obj-83", 0 ],
					"hidden" : 0,
					"midpoints" : [  ]
				}

			}
, 			{
				"patchline" : 				{
					"source" : [ "obj-87", 0 ],
					"destination" : [ "obj-94", 2 ],
					"hidden" : 0,
					"midpoints" : [  ]
				}

			}
, 			{
				"patchline" : 				{
					"source" : [ "obj-77", 0 ],
					"destination" : [ "obj-94", 1 ],
					"hidden" : 0,
					"midpoints" : [  ]
				}

			}
, 			{
				"patchline" : 				{
					"source" : [ "obj-31", 0 ],
					"destination" : [ "obj-94", 1 ],
					"hidden" : 0,
					"midpoints" : [  ]
				}

			}
, 			{
				"patchline" : 				{
					"source" : [ "obj-76", 0 ],
					"destination" : [ "obj-94", 1 ],
					"hidden" : 0,
					"midpoints" : [  ]
				}

			}
, 			{
				"patchline" : 				{
					"source" : [ "obj-75", 0 ],
					"destination" : [ "obj-94", 1 ],
					"hidden" : 0,
					"midpoints" : [  ]
				}

			}
, 			{
				"patchline" : 				{
					"source" : [ "obj-19", 0 ],
					"destination" : [ "obj-94", 0 ],
					"hidden" : 0,
					"midpoints" : [  ]
				}

			}
, 			{
				"patchline" : 				{
					"source" : [ "obj-102", 0 ],
					"destination" : [ "obj-96", 0 ],
					"hidden" : 0,
					"midpoints" : [  ]
				}

			}
, 			{
				"patchline" : 				{
					"source" : [ "obj-102", 0 ],
					"destination" : [ "obj-98", 0 ],
					"hidden" : 0,
					"midpoints" : [  ]
				}

			}
, 			{
				"patchline" : 				{
					"source" : [ "obj-102", 0 ],
					"destination" : [ "obj-99", 0 ],
					"hidden" : 0,
					"midpoints" : [  ]
				}

			}
, 			{
				"patchline" : 				{
					"source" : [ "obj-83", 0 ],
					"destination" : [ "obj-77", 0 ],
					"hidden" : 0,
					"midpoints" : [  ]
				}

			}
, 			{
				"patchline" : 				{
					"source" : [ "obj-83", 0 ],
					"destination" : [ "obj-31", 0 ],
					"hidden" : 0,
					"midpoints" : [  ]
				}

			}
, 			{
				"patchline" : 				{
					"source" : [ "obj-83", 0 ],
					"destination" : [ "obj-76", 0 ],
					"hidden" : 0,
					"midpoints" : [  ]
				}

			}
, 			{
				"patchline" : 				{
					"source" : [ "obj-83", 0 ],
					"destination" : [ "obj-75", 0 ],
					"hidden" : 0,
					"midpoints" : [  ]
				}

			}
, 			{
				"patchline" : 				{
					"source" : [ "obj-68", 0 ],
					"destination" : [ "obj-55", 0 ],
					"hidden" : 0,
					"midpoints" : [  ]
				}

			}
, 			{
				"patchline" : 				{
					"source" : [ "obj-36", 1 ],
					"destination" : [ "obj-51", 0 ],
					"hidden" : 0,
					"midpoints" : [  ]
				}

			}
, 			{
				"patchline" : 				{
					"source" : [ "obj-35", 0 ],
					"destination" : [ "obj-36", 0 ],
					"hidden" : 0,
					"midpoints" : [  ]
				}

			}
, 			{
				"patchline" : 				{
					"source" : [ "obj-21", 0 ],
					"destination" : [ "obj-35", 0 ],
					"hidden" : 0,
					"midpoints" : [  ]
				}

			}
, 			{
				"patchline" : 				{
					"source" : [ "obj-13", 0 ],
					"destination" : [ "obj-20", 0 ],
					"hidden" : 0,
					"midpoints" : [  ]
				}

			}
, 			{
				"patchline" : 				{
					"source" : [ "obj-55", 0 ],
					"destination" : [ "obj-58", 0 ],
					"hidden" : 0,
					"midpoints" : [  ]
				}

			}
, 			{
				"patchline" : 				{
					"source" : [ "obj-58", 1 ],
					"destination" : [ "obj-40", 0 ],
					"hidden" : 0,
					"midpoints" : [  ]
				}

			}
, 			{
				"patchline" : 				{
					"source" : [ "obj-58", 0 ],
					"destination" : [ "obj-38", 0 ],
					"hidden" : 0,
					"midpoints" : [  ]
				}

			}
, 			{
				"patchline" : 				{
					"source" : [ "obj-37", 0 ],
					"destination" : [ "obj-38", 1 ],
					"hidden" : 0,
					"midpoints" : [  ]
				}

			}
, 			{
				"patchline" : 				{
					"source" : [ "obj-51", 0 ],
					"destination" : [ "obj-40", 1 ],
					"hidden" : 0,
					"midpoints" : [  ]
				}

			}
, 			{
				"patchline" : 				{
					"source" : [ "obj-50", 0 ],
					"destination" : [ "obj-97", 0 ],
					"hidden" : 0,
					"midpoints" : [  ]
				}

			}
, 			{
				"patchline" : 				{
					"source" : [ "obj-21", 0 ],
					"destination" : [ "obj-50", 0 ],
					"hidden" : 0,
					"midpoints" : [  ]
				}

			}
, 			{
				"patchline" : 				{
					"source" : [ "obj-36", 1 ],
					"destination" : [ "obj-48", 0 ],
					"hidden" : 0,
					"midpoints" : [  ]
				}

			}
, 			{
				"patchline" : 				{
					"source" : [ "obj-42", 1 ],
					"destination" : [ "obj-38", 0 ],
					"hidden" : 0,
					"midpoints" : [ 237.0, 507.0, 206.25, 507.0, 206.25, 436.0, 223.5, 436.0 ]
				}

			}
, 			{
				"patchline" : 				{
					"source" : [ "obj-44", 1 ],
					"destination" : [ "obj-40", 0 ],
					"hidden" : 0,
					"midpoints" : [ 297.0, 507.0, 327.25, 507.0, 327.25, 436.0, 283.5, 436.0 ]
				}

			}
, 			{
				"patchline" : 				{
					"source" : [ "obj-44", 2 ],
					"destination" : [ "obj-46", 0 ],
					"hidden" : 0,
					"midpoints" : [  ]
				}

			}
, 			{
				"patchline" : 				{
					"source" : [ "obj-42", 2 ],
					"destination" : [ "obj-46", 0 ],
					"hidden" : 0,
					"midpoints" : [  ]
				}

			}
, 			{
				"patchline" : 				{
					"source" : [ "obj-44", 0 ],
					"destination" : [ "obj-38", 0 ],
					"hidden" : 0,
					"midpoints" : [ 283.5, 507.0, 263.5, 507.0, 263.5, 436.0, 223.5, 436.0 ]
				}

			}
, 			{
				"patchline" : 				{
					"source" : [ "obj-42", 0 ],
					"destination" : [ "obj-40", 0 ],
					"hidden" : 0,
					"midpoints" : [ 223.5, 507.0, 260.5, 507.0, 260.5, 436.0, 283.5, 436.0 ]
				}

			}
, 			{
				"patchline" : 				{
					"source" : [ "obj-38", 0 ],
					"destination" : [ "obj-42", 0 ],
					"hidden" : 0,
					"midpoints" : [  ]
				}

			}
, 			{
				"patchline" : 				{
					"source" : [ "obj-40", 0 ],
					"destination" : [ "obj-44", 0 ],
					"hidden" : 0,
					"midpoints" : [  ]
				}

			}
, 			{
				"patchline" : 				{
					"source" : [ "obj-71", 0 ],
					"destination" : [ "obj-37", 0 ],
					"hidden" : 0,
					"midpoints" : [  ]
				}

			}
, 			{
				"patchline" : 				{
					"source" : [ "obj-25", 0 ],
					"destination" : [ "obj-22", 0 ],
					"hidden" : 0,
					"midpoints" : [  ]
				}

			}
, 			{
				"patchline" : 				{
					"source" : [ "obj-29", 0 ],
					"destination" : [ "obj-23", 0 ],
					"hidden" : 0,
					"midpoints" : [  ]
				}

			}
, 			{
				"patchline" : 				{
					"source" : [ "obj-20", 0 ],
					"destination" : [ "obj-21", 0 ],
					"hidden" : 0,
					"midpoints" : [  ]
				}

			}
, 			{
				"patchline" : 				{
					"source" : [ "obj-22", 0 ],
					"destination" : [ "obj-21", 1 ],
					"hidden" : 0,
					"midpoints" : [  ]
				}

			}
, 			{
				"patchline" : 				{
					"source" : [ "obj-23", 0 ],
					"destination" : [ "obj-21", 2 ],
					"hidden" : 0,
					"midpoints" : [  ]
				}

			}
, 			{
				"patchline" : 				{
					"source" : [ "obj-13", 0 ],
					"destination" : [ "obj-41", 0 ],
					"hidden" : 0,
					"midpoints" : [  ]
				}

			}
, 			{
				"patchline" : 				{
					"source" : [ "obj-3", 0 ],
					"destination" : [ "obj-13", 0 ],
					"hidden" : 0,
					"midpoints" : [  ]
				}

			}
, 			{
				"patchline" : 				{
					"source" : [ "obj-26", 0 ],
					"destination" : [ "obj-30", 0 ],
					"hidden" : 0,
					"midpoints" : [  ]
				}

			}
, 			{
				"patchline" : 				{
					"source" : [ "obj-28", 0 ],
					"destination" : [ "obj-26", 1 ],
					"hidden" : 0,
					"midpoints" : [  ]
				}

			}
, 			{
				"patchline" : 				{
					"source" : [ "obj-30", 0 ],
					"destination" : [ "obj-79", 0 ],
					"hidden" : 0,
					"midpoints" : [  ]
				}

			}
, 			{
				"patchline" : 				{
					"source" : [ "obj-5", 0 ],
					"destination" : [ "obj-72", 1 ],
					"hidden" : 0,
					"midpoints" : [  ]
				}

			}
, 			{
				"patchline" : 				{
					"source" : [ "obj-41", 0 ],
					"destination" : [ "obj-26", 0 ],
					"hidden" : 0,
					"midpoints" : [  ]
				}

			}
, 			{
				"patchline" : 				{
					"source" : [ "obj-41", 0 ],
					"destination" : [ "obj-28", 0 ],
					"hidden" : 0,
					"midpoints" : [ 50.5, 176.0, 50.5, 176.0 ]
				}

			}
, 			{
				"patchline" : 				{
					"source" : [ "obj-41", 0 ],
					"destination" : [ "obj-60", 0 ],
					"hidden" : 0,
					"midpoints" : [ 50.5, 176.0, 117.5, 176.0 ]
				}

			}
, 			{
				"patchline" : 				{
					"source" : [ "obj-71", 0 ],
					"destination" : [ "obj-72", 0 ],
					"hidden" : 0,
					"midpoints" : [  ]
				}

			}
, 			{
				"patchline" : 				{
					"source" : [ "obj-72", 0 ],
					"destination" : [ "obj-71", 1 ],
					"hidden" : 0,
					"midpoints" : [  ]
				}

			}
, 			{
				"patchline" : 				{
					"source" : [ "obj-79", 0 ],
					"destination" : [ "obj-8", 0 ],
					"hidden" : 0,
					"midpoints" : [  ]
				}

			}
, 			{
				"patchline" : 				{
					"source" : [ "obj-8", 0 ],
					"destination" : [ "obj-71", 0 ],
					"hidden" : 0,
					"midpoints" : [  ]
				}

			}
, 			{
				"patchline" : 				{
					"source" : [ "obj-71", 0 ],
					"destination" : [ "obj-7", 0 ],
					"hidden" : 0,
					"midpoints" : [  ]
				}

			}
, 			{
				"patchline" : 				{
					"source" : [ "obj-60", 0 ],
					"destination" : [ "obj-30", 1 ],
					"hidden" : 0,
					"midpoints" : [  ]
				}

			}
 ]
	}

}
